<?xml version="1.0" encoding="UTF-8" standalone="no"?>
<svg
   xmlns:dc="http://purl.org/dc/elements/1.1/"
   xmlns:cc="http://creativecommons.org/ns#"
   xmlns:rdf="http://www.w3.org/1999/02/22-rdf-syntax-ns#"
   xmlns:svg="http://www.w3.org/2000/svg"
   xmlns="http://www.w3.org/2000/svg"
   viewBox="0 0 816 1056"
   height="1056"
   width="816"
   xml:space="preserve"
   id="svg2"
   version="1.1"><metadata
     id="metadata8"><rdf:RDF><cc:Work
         rdf:about=""><dc:format>image/svg+xml</dc:format><dc:type
           rdf:resource="http://purl.org/dc/dcmitype/StillImage" /></cc:Work></rdf:RDF></metadata><defs
     id="defs6" /><g
     transform="matrix(1.3333333,0,0,-1.3333333,0,1056)"
     id="g10"><text
       id="text14"
       style="font-variant:normal;font-weight:bold;font-size:24.78709984px;font-family:Lato;-inkscape-font-specification:Lato-Bold;writing-mode:lr-tb;fill:#000000;fill-opacity:1;fill-rule:nonzero;stroke:none"
       transform="matrix(1,0,0,-1,210.781,737.713)"><tspan
         id="tspan12"
         y="0"
         x="0 17.214642 29.794094 39.039684 51.817432 64.099442 76.790436 90.026749 103.26306 118.53191 134.27171 146.85118 153.14709 167.22617 181.2061">AaryaveerRajput</tspan></text>
<text
       id="text18"
       style="font-variant:normal;font-size:10.90909958px;font-family:FontAwesome5Free;-inkscape-font-specification:FontAwesome5Free-Solid;writing-mode:lr-tb;fill:#000000;fill-opacity:1;fill-rule:nonzero;stroke:none"
       transform="matrix(1,0,0,-1,92.659,720.706)"><tspan
         id="tspan16"
         y="0"
         x="0"></tspan></text>
<text
       id="text22"
       style="font-variant:normal;font-weight:normal;font-size:9.96259975px;font-family:Lato;-inkscape-font-specification:Lato-Regular;writing-mode:lr-tb;fill:#000000;fill-opacity:1;fill-rule:nonzero;stroke:none"
       transform="matrix(1,0,0,-1,106.361,720.706)"><tspan
         id="tspan20"
         y="0"
         x="0 5.7783079 11.556616 17.334925 21.03603 26.814339 32.592648 38.370953 42.07206 47.850368 53.628677 59.406982">602-757-6416</tspan></text>
<text
       id="text26"
       style="font-variant:normal;font-size:9.96259975px;font-family:FontAwesome5Free;-inkscape-font-specification:FontAwesome5Free-Solid;writing-mode:lr-tb;fill:#000000;fill-opacity:1;fill-rule:nonzero;stroke:none"
       transform="matrix(1,0,0,-1,186.61,720.706)"><tspan
         id="tspan24"
         y="0"
         x="0">#</tspan></text>
<text
       id="text30"
       style="font-variant:normal;font-weight:normal;font-size:9.96259975px;font-family:Lato;-inkscape-font-specification:Lato-Regular;writing-mode:lr-tb;fill:#000000;fill-opacity:1;fill-rule:nonzero;stroke:none"
       transform="matrix(1,0,0,-1,199.123,720.706)"><tspan
         id="tspan28"
         y="0"
         x="0 4.9514122 9.9028244 13.529211 18.565306 23.407129 28.408354 33.668606 38.92886 42.555244 46.101933 51.053345 53.444366 59.028404 64.582558 68.154144 73.932457 79.710762 85.489067 93.822784 99.003334 107.19758 112.14899 114.54001 116.89119 119.24236 123.90984 129.55862">aaryaveerrajput001@gmail.com</tspan></text>
<g
       transform="translate(199.123,717.493)"
       id="g32"><path
         id="path34"
         style="fill:none;stroke:#000000;stroke-width:0.398;stroke-linecap:butt;stroke-linejoin:miter;stroke-miterlimit:10;stroke-dasharray:none;stroke-opacity:1"
         d="M 0,0 H 137.758" /></g><text
       id="text38"
       style="font-variant:normal;font-weight:normal;font-size:9.96259975px;font-family:FontAwesome5Brands;-inkscape-font-specification:FontAwesome5Brands-Regular;writing-mode:lr-tb;fill:#000000;fill-opacity:1;fill-rule:nonzero;stroke:none"
       transform="matrix(1,0,0,-1,351.944,720.706)"><tspan
         id="tspan36"
         y="0"
         x="0">ï</tspan></text>
<text
       id="text42"
       style="font-variant:normal;font-weight:normal;font-size:9.96259975px;font-family:Lato;-inkscape-font-specification:Lato-Regular;writing-mode:lr-tb;fill:#000000;fill-opacity:1;fill-rule:nonzero;stroke:none"
       transform="matrix(1,0,0,-1,363.212,720.706)"><tspan
         id="tspan40"
         y="0"
         x="0 5.1157951 7.5068192 13.065949 17.838036 23.098288 28.607605 31.317432">LinkedIn</tspan></text>
<g
       transform="translate(363.212,719.239)"
       id="g44"><path
         id="path46"
         style="fill:none;stroke:#000000;stroke-width:0.398;stroke-linecap:butt;stroke-linejoin:miter;stroke-miterlimit:10;stroke-dasharray:none;stroke-opacity:1"
         d="M 0,0 H 36.882" /></g><text
       id="text50"
       style="font-variant:normal;font-weight:normal;font-size:9.96259975px;font-family:FontAwesome5Brands;-inkscape-font-specification:FontAwesome5Brands-Regular;writing-mode:lr-tb;fill:#000000;fill-opacity:1;fill-rule:nonzero;stroke:none"
       transform="matrix(1,0,0,-1,415.157,720.706)"><tspan
         id="tspan48"
         y="0"
         x="0">§</tspan></text>
<text
       id="text54"
       style="font-variant:normal;font-weight:normal;font-size:9.96259975px;font-family:Lato;-inkscape-font-specification:Lato-Regular;writing-mode:lr-tb;fill:#000000;fill-opacity:1;fill-rule:nonzero;stroke:none"
       transform="matrix(1,0,0,-1,427.351,720.706)"><tspan
         id="tspan52"
         y="0"
         x="0 7.2378287 9.6288528 13.200445 20.717226 26.271376">GitHub</tspan></text>
<g
       transform="translate(427.351,719.229)"
       id="g56"><path
         id="path58"
         style="fill:none;stroke:#000000;stroke-width:0.398;stroke-linecap:butt;stroke-linejoin:miter;stroke-miterlimit:10;stroke-dasharray:none;stroke-opacity:1"
         d="M 0,0 H 31.851" /></g><text
       id="text62"
       style="font-variant:normal;font-size:9.96259975px;font-family:FontAwesome5Free;-inkscape-font-specification:FontAwesome5Free-Solid;writing-mode:lr-tb;fill:#000000;fill-opacity:1;fill-rule:nonzero;stroke:none"
       transform="matrix(1,0,0,-1,474.265,720.706)"><tspan
         id="tspan60"
         y="0"
         x="0"></tspan></text>
<text
       id="text66"
       style="font-variant:normal;font-weight:normal;font-size:9.96259975px;font-family:Lato;-inkscape-font-specification:Lato-Regular;writing-mode:lr-tb;fill:#000000;fill-opacity:1;fill-rule:nonzero;stroke:none"
       transform="matrix(1,0,0,-1,486.778,720.706)"><tspan
         id="tspan64"
         y="0"
         x="0 2.7895279 8.5429296 14.296331">IEEE</tspan></text>
<g
       transform="translate(486.778,719.311)"
       id="g68"><path
         id="path70"
         style="fill:none;stroke:#000000;stroke-width:0.398;stroke-linecap:butt;stroke-linejoin:miter;stroke-miterlimit:10;stroke-dasharray:none;stroke-opacity:1"
         d="M 0,0 H 20.05" /></g><text
       id="text74"
       style="font-variant:normal;font-weight:normal;font-size:11.9552002px;font-family:Lato;-inkscape-font-specification:Lato-Regular;writing-mode:lr-tb;fill:#000000;fill-opacity:1;fill-rule:nonzero;stroke:none"
       transform="matrix(1,0,0,-1,36,694.747)"><tspan
         id="tspan72"
         y="0"
         x="0 6.653069 13.34798 20.013004 25.721613 31.57966 35.865601 38.734848 45.513447">Education</tspan></text>
<g
       transform="translate(36,690.364)"
       id="g76"><path
         id="path78"
         style="fill:none;stroke:#000000;stroke-width:0.398;stroke-linecap:butt;stroke-linejoin:miter;stroke-miterlimit:10;stroke-dasharray:none;stroke-opacity:1"
         d="M 0,0 H 540" /></g><text
       id="text82"
       style="font-variant:normal;font-weight:bold;font-size:10.90909958px;font-family:Lato;-inkscape-font-specification:Lato-Bold;writing-mode:lr-tb;fill:#000000;fill-opacity:1;fill-rule:nonzero;stroke:none"
       transform="matrix(1,0,0,-1,46.8,676.851)"><tspan
         id="tspan80"
         y="0"
         x="0 7.5654607 11.634555 14.405466 19.320017 25.587294 31.740026 39.927307 45.670948 49.729134 55.189137 59.203686 67.680054 75.594612 81.747337 84.51825 90.103714 95.929169 99.987358 104.78191 107.55282 111.611">ArizonaStateUniversity</tspan></text>
<text
       id="text86"
       style="font-variant:normal;font-weight:normal;font-size:10.90909958px;font-family:Lato;-inkscape-font-specification:Lato-Regular;writing-mode:lr-tb;fill:#000000;fill-opacity:1;fill-rule:nonzero;stroke:none"
       transform="matrix(1,0,0,-1,464.875,676.851)"><tspan
         id="tspan84"
         y="0"
         x="0 7.2436423 13.325465 21.790928 28.118206 34.445484 40.772762 49.892769 56.738228 66.70369 71.994606 80.410973 86.738251 93.065529 99.392807">Aug2024-May2026</tspan></text>
<text
       id="text90"
       style="font-style:italic;font-variant:normal;font-size:9.96259975px;font-family:Lato;-inkscape-font-specification:Lato-Italic;writing-mode:lr-tb;fill:#000000;fill-opacity:1;fill-rule:nonzero;stroke:none"
       transform="matrix(1,0,0,-1,46.8,663.302)"><tspan
         id="tspan88"
         y="0"
         x="0 8.433341 13.524229 17.50927 20.931423 25.698526 31.436985 36.497986 42.022247 47.05336 51.58136 53.872761 58.639862 63.92004 68.348419 75.44677 77.738167 85.349594 91.421799 96.592392 104.43295 109.69819 114.97339 118.39554 123.16264 128.90109 133.93222 138.46022 140.75162 145.51872 150.79889 155.22726 162.32562 164.71167 171.49121 176.63191 182.91832 187.72527 193.50359 195.83482 201.61313 209.25943 215.75505 221.53336 223.86461 229.64291 235.42122 460.57599 464.93961 469.7067 477.54727 482.8125 487.57962 492.14746 498.43387 501.84106 504.13248 508.25699 513.42755 518.70776">MasterofScienceinComputerScience(GPA:3.56/4.00)Tempe,Arizona</tspan></text>
<text
       id="text94"
       style="font-variant:normal;font-weight:normal;font-size:5.9776001px;font-family:CMSY6;-inkscape-font-specification:CMSY6;writing-mode:lr-tb;fill:#000000;fill-opacity:1;fill-rule:nonzero;stroke:none"
       transform="matrix(1,0,0,-1,61.526,651.141)"><tspan
         id="tspan92"
         y="0"
         x="0">•</tspan></text>
<text
       id="text98"
       style="font-variant:normal;font-weight:bold;font-size:9.96259975px;font-family:Lato;-inkscape-font-specification:Lato-Bold;writing-mode:lr-tb;fill:#000000;fill-opacity:1;fill-rule:nonzero;stroke:none"
       transform="matrix(1,0,0,-1,70.8,649.839)"><tspan
         id="tspan96"
         y="0"
         x="0 6.4806714 12.204185 17.823092 21.529179 25.907742 31.158031 39.063354 44.786869 48.502918 53.827927">Coursework:</tspan></text>
<text
       id="text102"
       style="font-variant:normal;font-weight:normal;font-size:9.96259975px;font-family:Lato;-inkscape-font-specification:Lato-Regular;writing-mode:lr-tb;fill:#000000;fill-opacity:1;fill-rule:nonzero;stroke:none"
       transform="matrix(1,0,0,-1,130.174,649.839)"><tspan
         id="tspan100"
         y="0"
         x="0 5.1954961 10.84429 16.398439 21.957571 27.536627 32.428265 35.999855 38.390881 44.039673 49.598804 56.463036 62.002239 68.044556 74.76931 77.120483 82.221336 87.870132 91.496521 93.887543 97.459137 103.01826 111.2125 115.52631 120.33825 127.84506 133.10532 138.36557 146.50003 151.24721 156.50746 161.45888 165.08527 170.64439 173.03542 178.59454 183.7751 188.58704 193.96185 199.50107 202.99295 206.56454 214.3304 219.28181 222.70894 230.51962 236.43242 241.69267 247.27173 252.82588 255.2169 258.64404 263.9043 272.09854 277.3588 282.84818 286.41977 293.284 298.23541 303.79456 311.92401 317.21915 322.80319 328.06345 332.82059 335.21161 340.91519 345.67233 350.55402 354.12561 356.51663 362.16541 367.72455">FoundationsofAlgorithms,DeepLearning,SoftwareRequirementsandSpeciﬁcations</tspan></text>
<text
       id="text106"
       style="font-variant:normal;font-weight:bold;font-size:10.90909958px;font-family:Lato;-inkscape-font-specification:Lato-Bold;writing-mode:lr-tb;fill:#000000;fill-opacity:1;fill-rule:nonzero;stroke:none"
       transform="matrix(1,0,0,-1,46.8,633.218)"><tspan
         id="tspan104"
         y="0"
         x="0 8.3290977 11.100009 15.169104 24.305475 32.492756 40.407307 46.56004 49.330952 54.916409 60.741867 64.800056 69.594604 72.365517 76.423698">NirmaUniversity</tspan></text>
<text
       id="text110"
       style="font-variant:normal;font-weight:normal;font-size:10.90909958px;font-family:Lato;-inkscape-font-specification:Lato-Regular;writing-mode:lr-tb;fill:#000000;fill-opacity:1;fill-rule:nonzero;stroke:none"
       transform="matrix(1,0,0,-1,520.113,633.218)"><tspan
         id="tspan108"
         y="0"
         x="0 4.4563675 10.538191 16.625469 25.178204 31.505482 37.83276 44.160038">June2023</tspan></text>
<text
       id="text114"
       style="font-style:italic;font-variant:normal;font-size:9.96259975px;font-family:Lato;-inkscape-font-specification:Lato-Italic;writing-mode:lr-tb;fill:#000000;fill-opacity:1;fill-rule:nonzero;stroke:none"
       transform="matrix(1,0,0,-1,46.8,619.669)"><tspan
         id="tspan112"
         y="0"
         x="0 5.9277468 11.018636 15.546638 20.821835 25.588938 27.830523 33.001114 38.739571 43.800571 49.324833 53.68845 58.435631 62.963631 68.238831 73.519005 78.689598 80.931183 86.071884 90.893784 98.002098 100.2935 107.90492 113.96716 119.13775 126.97832 132.24355 137.51875 140.9409 145.70801 151.44646 156.47757 161.00558 163.29698 168.06409 173.34425 177.78259 184.88095 189.97183 195.25201 202.85349 208.06392 213.3441 218.166 220.4574 225.73758 230.48476 235.25186 238.65906 240.95045 246.23064 253.38379 255.75987 262.53943 267.68011 273.96652 278.77347 284.55179 286.88303 292.66135 300.7709 307.26651 313.04483 315.37607 321.15439 326.93268 503.28067 505.86597 511.14615 516.41638 518.70776">BachelorofTechnologyinComputerScienceandEngineering(GPA:3.34/4.00)India</tspan></text>
<text
       id="text118"
       style="font-variant:normal;font-weight:normal;font-size:5.9776001px;font-family:CMSY6;-inkscape-font-specification:CMSY6;writing-mode:lr-tb;fill:#000000;fill-opacity:1;fill-rule:nonzero;stroke:none"
       transform="matrix(1,0,0,-1,61.526,607.509)"><tspan
         id="tspan116"
         y="0"
         x="0">•</tspan></text>
<text
       id="text122"
       style="font-variant:normal;font-weight:bold;font-size:9.96259975px;font-family:Lato;-inkscape-font-specification:Lato-Bold;writing-mode:lr-tb;fill:#000000;fill-opacity:1;fill-rule:nonzero;stroke:none"
       transform="matrix(1,0,0,-1,70.8,606.207)"><tspan
         id="tspan120"
         y="0"
         x="0 6.4806714 12.204185 17.823092 21.529179 25.907742 31.158031 39.063354 44.786869 48.502918 53.827927">Coursework:</tspan></text>
<text
       id="text128"
       style="font-variant:normal;font-weight:normal;font-size:9.96259975px;font-family:Lato;-inkscape-font-specification:Lato-Regular;writing-mode:lr-tb;fill:#000000;fill-opacity:1;fill-rule:nonzero;stroke:none"
       transform="matrix(1,0,0,-1,130.174,606.207)"><tspan
         id="tspan124"
         y="0"
         x="0 7.4470434 12.328717 15.90031 23.402147 28.587681 32.159271 35.78566 41.339809 46.096951 49.668541 55.222691 58.639862 63.900116 70.764351 75.715759 81.274887 89.404373 96.129128 98.480301 103.58115 109.22995 112.85633 115.24736 118.81895 124.37808 132.57231 136.88612 141.69806 149.58345 155.16251 157.55354 162.8138 167.57094 173.69295 181.56839 185.19478 187.5858 192.84605 198.33543 201.87715 207.13741 215.26688 221.15976 224.57693 230.2058 235.38635 238.93303 243.88445 252.07869 260.27292 262.66394 268.22308 273.40363 278.21558 287.96396 293.22421 301.3537 308.86053 314.0112 319.01242 324.27267 326.62384 332.27264 337.85666 346.0509 351.31116 356.80057 360.37216 365.18408 372.63113 377.52277 381.09436 386.04578 391.62482 396.57623 400.89005">DataStructuresandAlgorithms,ObjectOrientedProgramming,WebDevelopment,Database</tspan><tspan
         id="tspan126"
         y="11.955"
         x="-59.374001 -50.273167 -45.321754 -39.762623 -34.811211 -29.710358 -24.450106 -16.255867 -10.995614 -5.5062218 0.61579591 5.7614789 10.807536 15.121342 18.663046 23.923298 32.117538 36.431343 41.243279 47.987957 53.16851 55.559536 57.910709 65.72139 71.096207 76.635414 80.127304 83.698898 91.464745 96.416161 99.843292 107.65397 115.16079 120.31145 125.31268 130.57294 132.9241 138.57291 144.15694 152.35118 157.61143 163.10081">ManagementSystems,AgileSoftwareDevelopment</tspan></text>
<text
       id="text132"
       style="font-variant:normal;font-weight:normal;font-size:11.9552002px;font-family:Lato;-inkscape-font-specification:Lato-Regular;writing-mode:lr-tb;fill:#000000;fill-opacity:1;fill-rule:nonzero;stroke:none"
       transform="matrix(1,0,0,-1,36,571.254)"><tspan
         id="tspan130"
         y="0"
         x="0 5.6010113 11.913357 17.621965 24.292967 30.963968 33.833218 39.541824 45.483559 51.365517 57.743614 63.816856 66.686104 69.50753 72.328957">TechnicalSkills</tspan></text>
<g
       transform="translate(36,566.871)"
       id="g134"><path
         id="path136"
         style="fill:none;stroke:#000000;stroke-width:0.398;stroke-linecap:butt;stroke-linejoin:miter;stroke-miterlimit:10;stroke-dasharray:none;stroke-opacity:1"
         d="M 0,0 H 540" /></g><text
       id="text140"
       style="font-variant:normal;font-weight:bold;font-size:9.96259975px;font-family:Lato;-inkscape-font-specification:Lato-Bold;writing-mode:lr-tb;fill:#000000;fill-opacity:1;fill-rule:nonzero;stroke:none"
       transform="matrix(1,0,0,-1,46.8,553.5)"><tspan
         id="tspan138"
         y="0"
         x="0 6.0871487 9.653759 15.337422 20.597675 24.25395 29.309969 37.653648 45.997326 48.527824 54.146732 61.827896 67.003464 72.059486 77.678391 82.938644 88.557549 93.613571 98.784157 104.10419 108.48275">ProgrammingLanguages:</tspan></text>
<text
       id="text144"
       style="font-variant:normal;font-weight:normal;font-size:9.96259975px;font-family:Lato;-inkscape-font-specification:Lato-Regular;writing-mode:lr-tb;fill:#000000;fill-opacity:1;fill-rule:nonzero;stroke:none"
       transform="matrix(1,0,0,-1,160.824,553.5)"><tspan
         id="tspan142"
         y="0"
         x="0 4.0099463 8.8517704 13.882883 18.834295 23.646231 29.628773 34.764492 38.336086 43.895214 49.54401 55.103142 59.915077 67.362122 72.31353 75.939919 79.511513 84.323448">Java,Python,Dart,C</tspan></text>
<text
       id="text148"
       style="font-variant:normal;font-weight:bold;font-size:9.96259975px;font-family:Lato;-inkscape-font-specification:Lato-Bold;writing-mode:lr-tb;fill:#000000;fill-opacity:1;fill-rule:nonzero;stroke:none"
       transform="matrix(1,0,0,-1,46.8,541.545)"><tspan
         id="tspan146"
         y="0"
         x="0 9.8629742 15.183002 20.836779">Web:</tspan></text>
<text
       id="text152"
       style="font-variant:normal;font-weight:normal;font-size:9.96259975px;font-family:Lato;-inkscape-font-specification:Lato-Regular;writing-mode:lr-tb;fill:#000000;fill-opacity:1;fill-rule:nonzero;stroke:none"
       transform="matrix(1,0,0,-1,73.178,541.545)"><tspan
         id="tspan150"
         y="0"
         x="0 4.0099463 8.8517704 13.882883 18.834295 23.148102 27.905243 31.53163 33.922653 39.446915 43.018505 47.830444 53.743244 59.003498 63.95491 68.712051 72.283646 74.634819 77.025841 81.339645 86.151581 93.608589 99.257385 104.83644 110.09669 112.44787 114.83889 119.15269 123.96463 131.57108 137.45399 146.70427 151.82007 156.632 163.28702 168.69173 174.09644 178.90837 185.26949 190.91829 196.47742 200.04901 204.36281 207.9344 211.48109 216.43251 222.01654 226.82848 230.85835 236.11861 241.1796 246.31532 248.66649">Javascript,React.js,Node.js,HTML,CSS,Bootstrap,Jekyll</tspan></text>
<text
       id="text156"
       style="font-variant:normal;font-weight:bold;font-size:9.96259975px;font-family:Lato;-inkscape-font-specification:Lato-Bold;writing-mode:lr-tb;fill:#000000;fill-opacity:1;fill-rule:nonzero;stroke:none"
       transform="matrix(1,0,0,-1,46.8,529.59)"><tspan
         id="tspan154"
         y="0"
         x="0 9.2552557 14.978769 20.632545 23.163046 25.638752 30.95878">Mobile:</tspan></text>
<text
       id="text160"
       style="font-variant:normal;font-weight:normal;font-size:9.96259975px;font-family:Lato;-inkscape-font-specification:Lato-Regular;writing-mode:lr-tb;fill:#000000;fill-opacity:1;fill-rule:nonzero;stroke:none"
       transform="matrix(1,0,0,-1,83.305,529.59)"><tspan
         id="tspan158"
         y="0"
         x="0 5.5441871 7.8953605 13.44951 17.021103 20.562807 25.823059 31.99987 34.659885 39.845417 43.417011 48.298683 51.850353 59.66103 68.761864 73.71328 79.272408 84.223824 89.324669 94.584923 102.77916 108.03941 113.52881 117.1004 122.56987 128.7417 131.13272 136.13394 141.3942 145.02058 150.60463 156.25342 161.83247 166.64441 172.52733 175.95445 181.46378 186.60448 188.9955 194.57455 199.83481 203.05273 207.86467 214.20586 216.55704 222.20583 226.96297 232.11862 237.84213 243.10239 246.72878 250.0513 255.70009 259.32648 267.52072 272.47214 278.03125 282.69873 287.95898 293.42847 298.97266 301.32382 306.87796 310.44955 313.99127 319.25153 325.42831 332.93515 338.08582 342.35977 347.02725 352.67603 358.32483 360.67599 364.77063">Flutter(StateManagement:Riverpod,Provider,Bloc;Performance:FlutterDevTools)</tspan></text>
<text
       id="text164"
       style="font-variant:normal;font-weight:bold;font-size:9.96259975px;font-family:Lato;-inkscape-font-specification:Lato-Bold;writing-mode:lr-tb;fill:#000000;fill-opacity:1;fill-rule:nonzero;stroke:none"
       transform="matrix(1,0,0,-1,46.8,517.634)"><tspan
         id="tspan162"
         y="0"
         x="0 7.4470434 12.433325 16.139412 21.195431 26.849207 31.905226 36.283791 41.603817 48.403294 58.032146 62.814194 68.537704 74.261223 76.736923 81.115486">Databases&amp;Tools:</tspan></text>
<text
       id="text168"
       style="font-variant:normal;font-weight:normal;font-size:9.96259975px;font-family:Lato;-inkscape-font-specification:Lato-Regular;writing-mode:lr-tb;fill:#000000;fill-opacity:1;fill-rule:nonzero;stroke:none"
       transform="matrix(1,0,0,-1,133.456,517.634)"><tspan
         id="tspan166"
         y="0"
         x="0 9.1406851 14.226593 19.631304 27.606365 32.72216 37.534096 43.148022 45.539043 48.956215 54.216469 59.795525 64.746941 69.060745 74.320999 79.132935 88.233765 93.882561 99.441689 104.54254 110.03194 117.60849 124.04932 128.86125 136.09908 138.4901">MySQL,Firebase,MongoDB,Git</tspan></text>
<text
       id="text172"
       style="font-variant:normal;font-weight:normal;font-size:11.9552002px;font-family:Lato;-inkscape-font-specification:Lato-Regular;writing-mode:lr-tb;fill:#000000;fill-opacity:1;fill-rule:nonzero;stroke:none"
       transform="matrix(1,0,0,-1,36,491.676)"><tspan
         id="tspan170"
         y="0"
         x="0 6.9041281 12.857818 19.558706 25.871054 30.222746 33.091995 39.404339 46.07534 51.676353">Experience</tspan></text>
<g
       transform="translate(36,487.293)"
       id="g174"><path
         id="path176"
         style="fill:none;stroke:#000000;stroke-width:0.398;stroke-linecap:butt;stroke-linejoin:miter;stroke-miterlimit:10;stroke-dasharray:none;stroke-opacity:1"
         d="M 0,0 H 540" /></g><text
       id="text180"
       style="font-variant:normal;font-weight:bold;font-size:10.90909958px;font-family:Lato;-inkscape-font-specification:Lato-Bold;writing-mode:lr-tb;fill:#000000;fill-opacity:1;fill-rule:nonzero;stroke:none"
       transform="matrix(1,0,0,-1,46.8,473.78)"><tspan
         id="tspan178"
         y="0"
         x="0 8.2636433 13.800012 17.716379 23.907293 32.312756 35.47094 41.52549 45.283672 51.44186 55.456409 61.281868 66.540054">HardyInfotech</tspan></text>
<text
       id="text184"
       style="font-variant:normal;font-weight:normal;font-size:10.90909958px;font-family:Lato;-inkscape-font-specification:Lato-Regular;writing-mode:lr-tb;fill:#000000;fill-opacity:1;fill-rule:nonzero;stroke:none"
       transform="matrix(1,0,0,-1,470.766,473.78)"><tspan
         id="tspan182"
         y="0"
         x="0 4.4563675 10.538191 15.905468 22.232746 28.560024 34.887302 44.007309 50.852768 60.818233 66.109146 74.52552 80.852798 87.180069 93.507347">Jul2023-May2024</tspan></text>
<text
       id="text188"
       style="font-style:italic;font-variant:normal;font-size:9.96259975px;font-family:Lato;-inkscape-font-specification:Lato-Italic;writing-mode:lr-tb;fill:#000000;fill-opacity:1;fill-rule:nonzero;stroke:none"
       transform="matrix(1,0,0,-1,46.8,460.231)"><tspan
         id="tspan186"
         y="0"
         x="0 5.1606269 7.4022117 12.677408 16.20915 19.631304 24.398407 30.136866 37.155518 41.822994 46.485493 51.252594 53.494183 58.664768 63.930004 68.697105 448.55301 454.83939 460.11459 467.95517 472.72226 477.99249 483.08337 488.3486 493.43948 498.70972 503.27756 505.86285 511.14304 516.41327 518.70465">FlutterDeveloperAhmedabad,India</tspan></text>
<text
       id="text192"
       style="font-variant:normal;font-weight:normal;font-size:5.9776001px;font-family:CMSY6;-inkscape-font-specification:CMSY6;writing-mode:lr-tb;fill:#000000;fill-opacity:1;fill-rule:nonzero;stroke:none"
       transform="matrix(1,0,0,-1,61.526,448.117)"><tspan
         id="tspan190"
         y="0"
         x="0">•</tspan></text>
<text
       id="text198"
       style="font-variant:normal;font-weight:normal;font-size:9.96259975px;font-family:Lato;-inkscape-font-specification:Lato-Regular;writing-mode:lr-tb;fill:#000000;fill-opacity:1;fill-rule:nonzero;stroke:none"
       transform="matrix(1,0,0,-1,70.8,446.815)"><tspan
         id="tspan194"
         y="0"
         x="0 4.7870293 8.3337145 13.285127 18.844257 23.158064 25.509237 30.390911 33.942577 39.202831 47.332314 55.157936 57.548958 60.966129 66.176567 69.668465 73.215149 78.166557 86.360802 91.621048 98.485283 103.43669 108.99583 117.12531 122.70436 127.96461 132.27843 134.66945 139.84999 147.95955 156.15379 161.80258 166.55972 171.62073 177.17488 182.75891 189.62315 192.01418 197.50357 201.05524 209.25446 212.67162 217.93187 222.24568 227.82971 233.47852 239.03764 243.35146 245.74248 250.7437 258.55438 263.5058 269.06491 277.1944 282.33511 284.72614 289.03995 294.59409 299.5455 301.89667 304.24783 311.93399 316.88541 322.46945 328.05347 333.31372 338.26514 340.6163 343.00732 348.56647 356.29745 361.85159 366.16541 371.42566 377.60248 379.9935 385.48288 389.03455 394.2948 397.92117 401.38318 406.33459 411.00208 416.26233 420.57614 425.38806 430.64832 436.20746 440.52127 446.07541 449.70181 452.09283 457.65195">Translatedwireframesanddesignmockupsintoresponsiveandvisuallyappealinguserinterfaces,ensuring</tspan><tspan
         id="tspan196"
         y="11.955"
         x="0 4.6674781 10.316273 15.875403 20.189209 22.580233 26.894039 30.435743 35.695995 41.255127 46.012268 53.698414 61.524036 63.915062 67.486656 75.596207 81.175262 84.721947 89.673363 95.232491 100.81155 103.20258 108.7617 116.49268 121.67323 127.22739 129.61841 135.19746 140.45772 142.80888 145.19992 150.75905 156.0193 162.88353 167.83495 173.39407 181.52356 186.78381 192.34294 197.90207 202.85349 208.41261 213.16975 215.56078 221.1199 228.85089 234.40503 238.71884 243.67026 249.24931 251.64034 253.9915 256.38254 259.95413 264.74115">consistencywithbrandingguidelinesandenhancingusability.</tspan></text>
<text
       id="text202"
       style="font-variant:normal;font-weight:normal;font-size:5.9776001px;font-family:CMSY6;-inkscape-font-specification:CMSY6;writing-mode:lr-tb;fill:#000000;fill-opacity:1;fill-rule:nonzero;stroke:none"
       transform="matrix(1,0,0,-1,61.526,422.919)"><tspan
         id="tspan200"
         y="0"
         x="0">•</tspan></text>
<text
       id="text206"
       style="font-variant:normal;font-weight:normal;font-size:9.96259975px;font-family:Lato;-inkscape-font-specification:Lato-Regular;writing-mode:lr-tb;fill:#000000;fill-opacity:1;fill-rule:nonzero;stroke:none"
       transform="matrix(1,0,0,-1,70.8,421.854)"><tspan
         id="tspan204"
         y="0"
         x="0 7.8754354 13.389734 16.961327 19.35235 27.546589 29.937613 34.351044 39.611298 47.74078 52.054585 55.626179 60.507851 64.059517 71.870193 80.064438 85.015846 90.574982 95.52639 100.62724 105.8875 114.08173 119.34199 124.83138 130.9534 136.50754 140.82135 143.21237 148.7715 156.50249 162.67432 165.06534 170.06656 175.32681 178.9532 184.53725 190.18604 198.31552 203.26692 208.82607 216.95554 223.39636 228.17343 236.14848 242.80351 247.61545 252.56685 257.32401 262.88312 265.27414 270.4248 275.56552 277.95654 283.51569 291.24664">OptimizedstatemanagementusingRiverpodandBLOC,achievinga</tspan></text>
<text
       id="text210"
       style="font-variant:normal;font-weight:bold;font-size:9.96259975px;font-family:Lato;-inkscape-font-specification:Lato-Bold;writing-mode:lr-tb;fill:#000000;fill-opacity:1;fill-rule:nonzero;stroke:none"
       transform="matrix(1,0,0,-1,369.554,421.854)"><tspan
         id="tspan208"
         y="0"
         x="0 5.7783079 11.556616 22.141878 24.672379 33.016056 38.674812 42.241425 47.805534 52.906387 58.226418 66.570091 71.890121 77.439293">40%improvement</tspan></text>
<text
       id="text214"
       style="font-variant:normal;font-weight:normal;font-size:9.96259975px;font-family:Lato;-inkscape-font-specification:Lato-Regular;writing-mode:lr-tb;fill:#000000;fill-opacity:1;fill-rule:nonzero;stroke:none"
       transform="matrix(1,0,0,-1,453.255,421.854)"><tspan
         id="tspan212"
         y="0"
         x="0 2.3910241 10.500581 15.451993 21.03603 29.170492 33.484299 37.055889 42.007301 47.586357 49.977383 52.328556 54.719582 58.291172 65.977318 70.928734 76.487862 84.61734">inappstabilityanda</tspan></text>
<text
       id="text220"
       style="font-variant:normal;font-weight:bold;font-size:9.96259975px;font-family:Lato;-inkscape-font-specification:Lato-Bold;writing-mode:lr-tb;fill:#000000;fill-opacity:1;fill-rule:nonzero;stroke:none"
       transform="matrix(1,0,0,-1,545.374,421.854)"><tspan
         id="tspan216"
         y="0"
         x="0 5.7783079 11.556616">25%</tspan><tspan
         id="tspan218"
         y="11.956"
         x="-474.57401 -471.00739 -465.68735 -460.0336 -454.41467 -449.6127 -445.90662 -443.37613 -437.65262">reduction</tspan></text>
<text
       id="text224"
       style="font-variant:normal;font-weight:normal;font-size:9.96259975px;font-family:Lato;-inkscape-font-specification:Lato-Regular;writing-mode:lr-tb;fill:#000000;fill-opacity:1;fill-rule:nonzero;stroke:none"
       transform="matrix(1,0,0,-1,115.895,409.898)"><tspan
         id="tspan222"
         y="0"
         x="0 2.3910241 10.500581 17.828074 23.168026 25.519199 30.470612 38.201591 41.534081 47.182873 53.359684 60.861523 66.420654 71.680908 76.632317 78.98349 82.555084 90.664642 98.858879 103.8103 109.36942 114.32083 119.42168 124.68194 132.87617 138.13643 143.62582 149.74783 153.97198 159.01804 163.33185 166.87355 172.1338 182.87846 187.82988 193.41391 198.99796 201.34912 203.74016 208.4973 213.38893 216.96053 219.35155 225.00034 230.55946">inUIlagforahealthmanagementsystemapplication.</tspan></text>
<text
       id="text228"
       style="font-variant:normal;font-weight:normal;font-size:5.9776001px;font-family:CMSY6;-inkscape-font-specification:CMSY6;writing-mode:lr-tb;fill:#000000;fill-opacity:1;fill-rule:nonzero;stroke:none"
       transform="matrix(1,0,0,-1,61.526,397.957)"><tspan
         id="tspan226"
         y="0"
         x="0">•</tspan></text>
<text
       id="text232"
       style="font-variant:normal;font-weight:normal;font-size:9.96259975px;font-family:Lato;-inkscape-font-specification:Lato-Regular;writing-mode:lr-tb;fill:#000000;fill-opacity:1;fill-rule:nonzero;stroke:none"
       transform="matrix(1,0,0,-1,70.8,396.892)"><tspan
         id="tspan230"
         y="0"
         x="0 2.7098272 10.904066 16.488104 18.839277 24.099529 32.293766 37.55402 43.043415 46.595081 51.855331 59.984814 64.936226 70.515282 76.094337 78.485359 82.056953 84.447975 90.096771 95.655907 100.60732 105.50892 109.82272 115.08298 119.84012 125.39426 129.02065 131.41168 134.98326 142.66942 145.99194 151.2522 156.14383 159.71542 165.26958 168.68674 173.94699 178.2608 183.07274 185.46376 191.02289 195.78003 198.13121 203.68536 209.26442 211.65544 217.21457">Implementedadditionalsecurityfeatures,including</tspan></text>
<text
       id="text236"
       style="font-variant:normal;font-weight:bold;font-size:9.96259975px;font-family:Lato;-inkscape-font-specification:Lato-Bold;writing-mode:lr-tb;fill:#000000;fill-opacity:1;fill-rule:nonzero;stroke:none"
       transform="matrix(1,0,0,-1,295.751,396.892)"><tspan
         id="tspan234"
         y="0"
         x="0 6.59026 13.509286 19.676134 25.414593 32.004852 39.681034">CAPTCHA</tspan></text>
<text
       id="text240"
       style="font-variant:normal;font-weight:normal;font-size:9.96259975px;font-family:Lato;-inkscape-font-specification:Lato-Regular;writing-mode:lr-tb;fill:#000000;fill-opacity:1;fill-rule:nonzero;stroke:none"
       transform="matrix(1,0,0,-1,344.956,396.892)"><tspan
         id="tspan238"
         y="0"
         x="0 4.9514122 10.510543 18.640024 22.953831 27.710972 31.138105 36.398357 41.658611 49.768169 52.119343 57.768135 62.525276 67.586281 72.398216 75.815384 81.075638 85.389442 90.943596 93.294769 96.866364 99.257385 104.81651 112.54749 114.93851 123.04807">andscreenlock,resultingina</tspan></text>
<text
       id="text244"
       style="font-variant:normal;font-weight:bold;font-size:9.96259975px;font-family:Lato;-inkscape-font-specification:Lato-Bold;writing-mode:lr-tb;fill:#000000;fill-opacity:1;fill-rule:nonzero;stroke:none"
       transform="matrix(1,0,0,-1,475.506,396.892)"><tspan
         id="tspan242"
         y="0"
         x="0 5.7783079 11.556616 22.141878 27.795654 33.115681 37.917656 41.494228 46.814259 51.870277 56.24884">20%decrease</tspan></text>
<text
       id="text250"
       style="font-variant:normal;font-weight:normal;font-size:9.96259975px;font-family:Lato;-inkscape-font-specification:Lato-Regular;writing-mode:lr-tb;fill:#000000;fill-opacity:1;fill-rule:nonzero;stroke:none"
       transform="matrix(1,0,0,-1,539.621,396.892)"><tspan
         id="tspan246"
         y="0"
         x="0 2.3910241">in</tspan><tspan
         id="tspan248"
         y="11.956"
         x="-468.82101 -463.26685 -457.70773 -452.75632 -447.20215 -443.63055 -438.07144 -432.42264 -428.79626 -426.40524 -422.00177 -416.74152 -408.61203 -403.66061 -398.99313 -394.32565 -389.0654 -384.75159 -377.88736 -372.99573 -369.42413 -365.88245 -360.62219 -352.42795 -346.90369 -343.33209 -336.46786 -331.51645 -326.75931 -323.34213 -317.69333 -313.37955">unauthorizedaccessattemptsacross</tspan></text>
<text
       id="text254"
       style="font-variant:normal;font-weight:bold;font-size:9.96259975px;font-family:Lato;-inkscape-font-specification:Lato-Bold;writing-mode:lr-tb;fill:#000000;fill-opacity:1;fill-rule:nonzero;stroke:none"
       transform="matrix(1,0,0,-1,233.111,384.936)"><tspan
         id="tspan252"
         y="0"
         x="0 5.7783079 8.1095562 13.887864 19.666172 25.444481 33.6437 39.262608 43.641171 48.961197 52.657322">5,000+users</tspan></text>
<text
       id="text258"
       style="font-variant:normal;font-weight:normal;font-size:9.96259975px;font-family:Lato;-inkscape-font-specification:Lato-Regular;writing-mode:lr-tb;fill:#000000;fill-opacity:1;fill-rule:nonzero;stroke:none"
       transform="matrix(1,0,0,-1,290.152,384.936)"><tspan
         id="tspan256"
         y="0"
         x="0 4.8119359 9.125742 12.697333 16.114506 21.374758 26.933889 32.114441 35.686031 41.245163 46.505417 52.064548 54.45557 60.014702 67.745682 73.324738 78.21637 81.787964 89.289803 94.87384 98.291008 103.85014 107.40181 112.66206 117.4192 120.9908 123.38182 129.03061 134.58975">,strengtheningdataprotection.</tspan></text>
<text
       id="text262"
       style="font-variant:normal;font-weight:bold;font-size:10.90909958px;font-family:Lato;-inkscape-font-specification:Lato-Bold;writing-mode:lr-tb;fill:#000000;fill-opacity:1;fill-rule:nonzero;stroke:none"
       transform="matrix(1,0,0,-1,46.8,368.316)"><tspan
         id="tspan260"
         y="0"
         x="0 5.8854594 12.038192 18.229107 24.054565 29.880024 38.727306 44.061855 49.598225 55.707317 64.396416 69.932785 74.001877 76.156425 83.601891 90.245529 96.070992 100.86554 106.69099 112.22736 116.14373 121.40192 130.20557 138.0383 141.95467 148.22194 154.37468">SudeepTanwar’sResearchGroup</tspan></text>
<text
       id="text266"
       style="font-variant:normal;font-weight:normal;font-size:10.90909958px;font-family:Lato;-inkscape-font-specification:Lato-Regular;writing-mode:lr-tb;fill:#000000;fill-opacity:1;fill-rule:nonzero;stroke:none"
       transform="matrix(1,0,0,-1,472.746,368.316)"><tspan
         id="tspan264"
         y="0"
         x="0 4.4563675 10.538191 15.905468 22.232746 28.560024 34.887302 44.007309 53.127316 57.583683 63.665508 72.545517 78.872795 85.200073 91.527351">Jul2023–Jun2024</tspan></text>
<text
       id="text270"
       style="font-style:italic;font-variant:normal;font-size:9.96259975px;font-family:Lato;-inkscape-font-specification:Lato-Italic;writing-mode:lr-tb;fill:#000000;fill-opacity:1;fill-rule:nonzero;stroke:none"
       transform="matrix(1,0,0,-1,46.8,354.766)"><tspan
         id="tspan268"
         y="0"
         x="0 5.5043364 10.271441 14.25648 19.023584 24.114473 27.332394 31.860395 39.466839 44.32859 47.860329 53.135529 58.405743 63.172848 68.39325 74.256241 76.831573 82.042007 87.132896 90.540108 93.972221 97.469093 101.00084 103.29224 111.1328 115.71062 448.55301 454.83939 460.11459 467.95517 472.72226 477.99249 483.08337 488.3486 493.43948 498.70972 503.27756 505.86285 511.14304 516.41327 518.70465">ResearchStudent(Part-time)Ahmedabad,India</tspan></text>
<text
       id="text274"
       style="font-variant:normal;font-weight:normal;font-size:5.9776001px;font-family:CMSY6;-inkscape-font-specification:CMSY6;writing-mode:lr-tb;fill:#000000;fill-opacity:1;fill-rule:nonzero;stroke:none"
       transform="matrix(1,0,0,-1,61.526,342.653)"><tspan
         id="tspan272"
         y="0"
         x="0">•</tspan></text>
<text
       id="text280"
       style="font-variant:normal;font-weight:normal;font-size:9.96259975px;font-family:Lato;-inkscape-font-specification:Lato-Regular;writing-mode:lr-tb;fill:#000000;fill-opacity:1;fill-rule:nonzero;stroke:none"
       transform="matrix(1,0,0,-1,70.8,341.351)"><tspan
         id="tspan276"
         y="0"
         x="0 9.7484045 15.397199 19.023584 23.805634 29.065886 37.195366 41.952507 44.30368 49.952477 54.266281 59.526535 61.877708 69.563858 77.389481 79.780502 83.352097 91.461647 98.963486 102.50519 107.76544 112.71686 123.46152 129.00073 135.04305 138.61464 146.37051 154.56973 160.15378 163.58092 169.12012 172.44264 177.7029 182.01671 186.33051 191.97931 195.57581 199.8896 204.70154 210.65419 216.21333 218.5645 225.92188 230.82349 235.13728 238.70888 244.26303 249.84209 255.10234 260.59174 264.16333 268.47711 273.28906 278.24048 283.79959 291.92908 297.48325 303.04236 308.62143 313.88168 317.38852 322.56906 326.11575 331.06717 336.64621 342.20038 347.09201 350.6337 358.4444 361.87152 367.13177 371.44559 376.70584 381.65726 385.0744 389.83154 395.39069 400.65094 404.24744 411.11166 414.66333 422.86255 428.44162 433.59229 438.59351 443.85376 446.20493 451.85373 459.98819 467.49002 470.9072 476.16745 480.48126 485.74152 490.69293 494.12006 498.8772">Workedcloselywithateamoftwoprofessors,Ph.D.students,andundergraduateresearcherstodeveloparesearch</tspan><tspan
         id="tspan278"
         y="11.955"
         x="0 5.5840373 10.535449 16.119486 21.37974 27.556551 33.205345 41.314903 46.072044 51.207764 56.786819 62.047073 65.64357 69.957375 75.217628 79.97477 85.528923 89.155304 91.546333 95.11792 102.80407 107.11787 112.76667 115.11784 120.67199 124.24358 126.63461 132.2834 137.84253 142.15634">paperoncybersecuritysolutions.</tspan></text>
<text
       id="text284"
       style="font-variant:normal;font-weight:normal;font-size:5.9776001px;font-family:CMSY6;-inkscape-font-specification:CMSY6;writing-mode:lr-tb;fill:#000000;fill-opacity:1;fill-rule:nonzero;stroke:none"
       transform="matrix(1,0,0,-1,61.526,317.455)"><tspan
         id="tspan282"
         y="0"
         x="0">•</tspan></text>
<text
       id="text288"
       style="font-variant:normal;font-weight:normal;font-size:9.96259975px;font-family:Lato;-inkscape-font-specification:Lato-Regular;writing-mode:lr-tb;fill:#000000;fill-opacity:1;fill-rule:nonzero;stroke:none"
       transform="matrix(1,0,0,-1,70.8,316.389)"><tspan
         id="tspan286"
         y="0"
         x="0 5.8829155 9.31005 14.958844 20.542881 26.191675 30.505482 35.765736 43.895214 51.397053 55.710857 60.971111 65.728256 71.282402 74.699577 79.959831 84.771767 90.350822 95.611069 100.27855 105.5388 111.0282 114.59978 118.14648 123.09789 125.44906 127.84008 132.25351 137.51376">Proposedasecure,decentralized</tspan></text>
<text
       id="text292"
       style="font-variant:normal;font-weight:bold;font-size:9.96259975px;font-family:Lato;-inkscape-font-specification:Lato-Bold;writing-mode:lr-tb;fill:#000000;fill-opacity:1;fill-rule:nonzero;stroke:none"
       transform="matrix(1,0,0,-1,216.443,316.389)"><tspan
         id="tspan290"
         y="0"
         x="0 5.6537757 8.1842756 11.900326 15.606413 23.646231 28.358541 33.67857 37.394619 41.100708 43.631207 49.613747 54.415722 59.402004 63.068241 70.809181 79.152855 84.208878 89.827782 94.883804 100.05439 105.37442 113.7181 119.03812 124.5873 130.71429 134.99323 140.14888 144.52744 148.19368 153.5137">birthcertiﬁcatemanagementsystem</tspan></text>
<text
       id="text298"
       style="font-variant:normal;font-weight:normal;font-size:9.96259975px;font-family:Lato;-inkscape-font-specification:Lato-Regular;writing-mode:lr-tb;fill:#000000;fill-opacity:1;fill-rule:nonzero;stroke:none"
       transform="matrix(1,0,0,-1,380.846,316.389)"><tspan
         id="tspan294"
         y="0"
         x="0 2.3511736 7.5018377 12.503063 17.763315 21.310001 26.261414 31.441965 33.832989 39.39212 47.123096 52.074509 57.653564 62.684681 67.636093 73.195221 77.862701 83.122955 91.252434 99.446671 104.39809 109.15523 114.71436 117.10538 122.66451 130.47519 132.82637 138.08662 143.03802 146.66441 152.22354 154.61458 160.17371">leveragingadvancedmachinelearning</tspan><tspan
         id="tspan296"
         y="11.955"
         x="-310.04599 -305.09457 -302.74341 -297.64258 -291.99377 -288.36737 -285.97635 -282.40475 -276.84564 -268.6514 -261.78717 -256.83575 -251.27663 -243.14714 -237.56808 -235.21692 -229.56812 -224.81097 -220.03889 -215.28175 -209.72261 -204.77121 -202.38019 -194.27063 -190.71896 -185.45871 -180.70157 -175.14244 -169.5833 -163.93451 -161.58333 -155.96443 -150.78387 -145.99684">algorithmsandblockchaintechnology.</tspan></text>
<text
       id="text302"
       style="font-variant:normal;font-weight:normal;font-size:5.9776001px;font-family:CMSY6;-inkscape-font-specification:CMSY6;writing-mode:lr-tb;fill:#000000;fill-opacity:1;fill-rule:nonzero;stroke:none"
       transform="matrix(1,0,0,-1,61.526,292.493)"><tspan
         id="tspan300"
         y="0"
         x="0">•</tspan></text>
<text
       id="text306"
       style="font-variant:normal;font-weight:normal;font-size:9.96259975px;font-family:Lato;-inkscape-font-specification:Lato-Regular;writing-mode:lr-tb;fill:#000000;fill-opacity:1;fill-rule:nonzero;stroke:none"
       transform="matrix(1,0,0,-1,70.8,291.427)"><tspan
         id="tspan304"
         y="0"
         x="0 6.6052036 11.362346 16.921476 19.3125 24.463163 29.46439 34.724644">Achieved</tspan></text>
<text
       id="text310"
       style="font-variant:normal;font-weight:bold;font-size:9.96259975px;font-family:Lato;-inkscape-font-specification:Lato-Bold;writing-mode:lr-tb;fill:#000000;fill-opacity:1;fill-rule:nonzero;stroke:none"
       transform="matrix(1,0,0,-1,113.659,291.427)"><tspan
         id="tspan308"
         y="0"
         x="0 5.7783079 11.556616 13.922733 19.701042 25.479349 36.064613 41.120632 45.832943 50.634914 56.253822 59.900131 64.956154 69.758125">86.21%accuracy</tspan></text>
<text
       id="text316"
       style="font-variant:normal;font-weight:normal;font-size:9.96259975px;font-family:Lato;-inkscape-font-specification:Lato-Regular;writing-mode:lr-tb;fill:#000000;fill-opacity:1;fill-rule:nonzero;stroke:none"
       transform="matrix(1,0,0,-1,191.228,291.427)"><tspan
         id="tspan312"
         y="0"
         x="0 2.3910241 10.500581 16.079636 21.300039 24.851706 30.111958 34.869099 38.440693 40.831715 46.390846 54.121826 59.073238 61.424412 64.966118 70.226364 73.653503 78.913757 87.043236 92.622292 95.013313 98.639702 102.2113 110.32085 114.98833 120.24858 123.87497 127.44656 129.83759 135.54117 140.29831 145.17999 148.73166 153.99191 158.30571 163.11765 168.3779 173.93703 179.49617 184.44757 190.00671 194.76385 197.15488 202.714 210.44498 214.75879 220.01904 224.77618 230.33034 233.95671 236.34775 239.91933 244.67647 249.4884 255.07245 258.49957 263.65024 268.65146 273.91171 279.40112 282.97272 285.36374 290.92285 298.65384 302.14572 305.69241 310.64383 316.19797 321.77704 326.58896 334.7832 337.17422 340.74582 343.13684 348.31741 353.19907 356.77066 359.16168 364.72083">indetectingalteredbirthcertiﬁcates,enhancingsecurity,preventingfraud,mitigating</tspan><tspan
         id="tspan314"
         y="11.955"
         x="-120.428 -118.03698 -112.45792 -107.19767 -101.70827 -98.136681 -95.745659 -92.174065 -84.487923 -80.916328 -75.357201 -70.146759 -66.654869 -63.083275 -58.271339 -53.319927 -47.760796 -39.631313 -34.679901 -29.100845 -24.069733 -19.11832 -13.55919 -8.8020487 -6.4110241 -0.85189348 6.8790841 12.45814 14.849164 20.029716 22.42074 25.992332 30.943745 35.845345 38.236366 43.815422 49.075676 54.565067 58.136662 60.527683 64.099274 71.785423 76.786652 82.046898 85.673286 88.064308 93.767899 98.52504 103.40672 106.97831 109.36933 115.01813 120.57726">identitytheft,andadvancingdigitalidentityveriﬁcation.</tspan></text>
<text
       id="text320"
       style="font-variant:normal;font-weight:normal;font-size:5.9776001px;font-family:CMSY6;-inkscape-font-specification:CMSY6;writing-mode:lr-tb;fill:#000000;fill-opacity:1;fill-rule:nonzero;stroke:none"
       transform="matrix(1,0,0,-1,61.526,267.531)"><tspan
         id="tspan318"
         y="0"
         x="0">•</tspan></text>
<text
       id="text324"
       style="font-variant:normal;font-weight:bold;font-size:9.96259975px;font-family:Lato;-inkscape-font-specification:Lato-Bold;writing-mode:lr-tb;fill:#000000;fill-opacity:1;fill-rule:nonzero;stroke:none"
       transform="matrix(1,0,0,-1,70.8,266.466)"><tspan
         id="tspan322"
         y="0"
         x="0 5.3748226 10.993729 15.706038 20.418348 25.738377 30.11694 34.495502 38.067093 43.686001 46.161709 48.637413 56.313595 61.972355 67.591263 73.245033 75.720741 78.251244 82.629807 88.248711 93.568741">Successfullypublished</tspan></text>
<text
       id="text330"
       style="font-variant:normal;font-weight:normal;font-size:9.96259975px;font-family:Lato;-inkscape-font-specification:Lato-Regular;writing-mode:lr-tb;fill:#000000;fill-opacity:1;fill-rule:nonzero;stroke:none"
       transform="matrix(1,0,0,-1,172.573,266.466)"><tspan
         id="tspan326"
         y="0"
         x="0 3.5715921 9.130723 16.941401 20.358574 25.618826 29.932632 35.192886 40.144299 43.57143 48.328571 56.438129 58.829151 66.938713 70.5103 76.069435 83.880112 89.658417 95.436729 101.21503 109.54377 112.3333 118.0867 123.8401 132.14392 134.85376 140.34314 143.89481 149.15506 152.78145 158.34058 163.22226 166.79385 169.18488 174.83366 180.39279 185.34421 190.2458 196.80119 202.45 207.92943 211.26192 216.52217 219.93935 225.19958 230.75873 235.42619 243.23688 248.88567 256.99524 259.71503 265.20441 268.74612 274.00638 276.35754 278.70871 281.09973 286.20059 291.46085 296.95023 303.07227 308.21793 313.26401 317.57779 321.12946 326.38971 334.58395 341.44818 344.77072 350.41953">theresearchinthe2024IEEEInternationalConferenceonIntelligentSystemsfor</tspan><tspan
         id="tspan328"
         y="11.956"
         x="-101.773 -95.287346 -90.151627 -84.572571 -79.312317 -75.71582 -71.402016 -66.141762 -61.384621 -55.830471 -52.204082 -49.813061 -46.241467 -38.555321 -35.895306 -33.105778 -27.701069 -21.046053 -15.641342 -12.981327">Cybersecurity(ISCS).</tspan></text>
<text
       id="text334"
       style="font-variant:normal;font-weight:bold;font-size:9.96259975px;font-family:Lato;-inkscape-font-specification:Lato-Bold;writing-mode:lr-tb;fill:#000000;fill-opacity:1;fill-rule:nonzero;stroke:none"
       transform="matrix(1,0,0,-1,164.493,254.51)"><tspan
         id="tspan332"
         y="0"
         x="0 3.123275 9.1406851 14.196705 19.855461 25.175489 31.312452 36.488022 39.018524 44.637428 49.96244">[PaperLink]</tspan></text>
<text
       id="text338"
       style="font-variant:normal;font-weight:normal;font-size:11.9552002px;font-family:Lato;-inkscape-font-specification:Lato-Regular;writing-mode:lr-tb;fill:#000000;fill-opacity:1;fill-rule:nonzero;stroke:none"
       transform="matrix(1,0,0,-1,36,231.513)"><tspan
         id="tspan336"
         y="0"
         x="0 7.0715008 11.172134 17.950733 20.819981 27.132326 32.840935 37.126873">Projects</tspan></text>
<g
       transform="translate(36,227.13)"
       id="g340"><path
         id="path342"
         style="fill:none;stroke:#000000;stroke-width:0.398;stroke-linecap:butt;stroke-linejoin:miter;stroke-miterlimit:10;stroke-dasharray:none;stroke-opacity:1"
         d="M 0,0 H 540" /></g><text
       id="text346"
       style="font-variant:normal;font-weight:bold;font-size:9.96259975px;font-family:Lato;-inkscape-font-specification:Lato-Bold;writing-mode:lr-tb;fill:#000000;fill-opacity:1;fill-rule:nonzero;stroke:none"
       transform="matrix(1,0,0,-1,46.8,211.624)"><tspan
         id="tspan344"
         y="0"
         x="0 5.2204022 10.61515 16.234056 21.957571">eShop</tspan></text>
<text
       id="text350"
       style="font-variant:normal;font-weight:normal;font-size:9.96259975px;font-family:CMSY10;-inkscape-font-specification:CMSY10;writing-mode:lr-tb;fill:#000000;fill-opacity:1;fill-rule:nonzero;stroke:none"
       transform="matrix(1,0,0,-1,76.966,211.624)"><tspan
         id="tspan348"
         y="0"
         x="0">|</tspan></text>
<text
       id="text354"
       style="font-style:italic;font-variant:normal;font-size:9.96259975px;font-family:Lato;-inkscape-font-specification:Lato-Italic;writing-mode:lr-tb;fill:#000000;fill-opacity:1;fill-rule:nonzero;stroke:none"
       transform="matrix(1,0,0,-1,82.284,211.624)"><tspan
         id="tspan352"
         y="0"
         x="0 5.1705894 7.4121742 12.687371 16.219112 19.641266 24.408369 27.387188 31.95504 38.913914 41.205315 46.296204 48.537788 53.67849 58.410725 63.690903 68.059502 73.160355 80.104286 84.672134 91.596146 96.766731 102.03695 106.80405 109.1353 111.41674 115.40178 119.96963 128.41293 133.58353 138.86369 143.56604 148.5872 155.63574">Flutter,DialogFLow,Node.js,MongoDB</tspan></text>
<text
       id="text358"
       style="font-variant:normal;font-weight:normal;font-size:9.96259975px;font-family:FontAwesome5Brands;-inkscape-font-specification:FontAwesome5Brands-Regular;writing-mode:lr-tb;fill:#000000;fill-opacity:1;fill-rule:nonzero;stroke:none"
       transform="matrix(1,0,0,-1,522.548,211.624)"><tspan
         id="tspan356"
         y="0"
         x="0">§</tspan></text>
<text
       id="text362"
       style="font-variant:normal;font-weight:normal;font-size:9.96259975px;font-family:Lato;-inkscape-font-specification:Lato-Regular;writing-mode:lr-tb;fill:#000000;fill-opacity:1;fill-rule:nonzero;stroke:none"
       transform="matrix(1,0,0,-1,534.742,211.624)"><tspan
         id="tspan360"
         y="0"
         x="0 7.2378287 9.6288528 13.200445 20.717226 26.271376">GitHub</tspan></text>
<g
       transform="translate(522.548,209.363)"
       id="g364"><path
         id="path366"
         style="fill:none;stroke:#000000;stroke-width:0.398;stroke-linecap:butt;stroke-linejoin:miter;stroke-miterlimit:10;stroke-dasharray:none;stroke-opacity:1"
         d="M 0,0 H 44.045" /></g><text
       id="text370"
       style="font-variant:normal;font-weight:normal;font-size:5.9776001px;font-family:CMSY6;-inkscape-font-specification:CMSY6;writing-mode:lr-tb;fill:#000000;fill-opacity:1;fill-rule:nonzero;stroke:none"
       transform="matrix(1,0,0,-1,61.526,199.902)"><tspan
         id="tspan368"
         y="0"
         x="0">•</tspan></text>
<text
       id="text376"
       style="font-variant:normal;font-weight:normal;font-size:9.96259975px;font-family:Lato;-inkscape-font-specification:Lato-Regular;writing-mode:lr-tb;fill:#000000;fill-opacity:1;fill-rule:nonzero;stroke:none"
       transform="matrix(1,0,0,-1,70.8,198.6)"><tspan
         id="tspan372"
         y="0"
         x="0 7.5068192 12.657483 17.658709 22.918961 25.270134 30.918928 36.502968 41.763218 49.8927 54.844112 62.953671 68.213921 71.915031 76.582504 82.2313 90.425537 98.619774 103.88003 107.2972 111.96468 119.77536 124.72677 130.31081 135.89485 138.24602 140.63704 145.39418 150.28583 153.85741 156.24844 161.89723 170.00679 172.39781 177.88721 181.42891 186.68916 191.86972 195.4164 200.30803 203.87962 206.27065 211.82979 219.56076 224.51218 230.09123 235.12234 240.07376 245.63289 250.30037 255.56061 263.69009 267.01263 272.27289 277.16452 280.73611 286.29025 289.70743 294.96768 301.83191 306.14572 311.69986 316.457 324.56656 329.51797 336.3822 340.69601 345.95627 350.90768 354.33481 359.09195 367.20151 372.76065 375.15167 379.46548 383.00717 388.65598 392.28235 397.04947 401.86139 407.56497 409.91617 413.45786 418.71811 422.34451 424.73553 430.29465 438.02563 446.21988 451.48013 456.23727 461.79639 466.7478 472.30695 474.69797 479.01178 487.20602 491.51981">Developedane-commerceapplicationintegratingadvancedfeaturessuchassearchhistory,ﬁlteringmechanisms,</tspan><tspan
         id="tspan374"
         y="11.955"
         x="0 5.5840373 9.0012093 14.650003 20.229059 25.783209 30.54035 36.662369 40.209053 45.100689 48.672283 51.063305 56.622437 61.80299 66.116798 70.928734 75.242538 80.502792 85.259933 90.814079 94.231255 102.04193 107.62597 112.45783 117.59355 125.78779 131.04803 136.53743 142.65945 147.84 152.73164 156.27335 161.48378 169.24963 174.0815 179.12755 183.44136 188.2533 193.90208 197.33919 202.91824 208.17848 214.3553 219.91443 222.30545 226.61926 230.16096 235.80975 239.43614 244.20325 249.01518 253.9666 259.52573 267.65521 271.07239 276.33264 281.28406 283.63522 287.33633 290.90793 293.29895 301.49319 309.30386 314.95267 318.38974 323.96881 329.22906 335.40588 338.97748 342.52414 347.47556 352.2327 357.2937 359.68472 365.24387 370.42441">productratings,securepaymentgateways,orderhistory,andreal-timeordertracking.</tspan></text>
<text
       id="text380"
       style="font-variant:normal;font-weight:normal;font-size:5.9776001px;font-family:CMSY6;-inkscape-font-specification:CMSY6;writing-mode:lr-tb;fill:#000000;fill-opacity:1;fill-rule:nonzero;stroke:none"
       transform="matrix(1,0,0,-1,61.526,174.704)"><tspan
         id="tspan378"
         y="0"
         x="0">•</tspan></text>
<text
       id="text384"
       style="font-variant:normal;font-weight:normal;font-size:9.96259975px;font-family:Lato;-inkscape-font-specification:Lato-Regular;writing-mode:lr-tb;fill:#000000;fill-opacity:1;fill-rule:nonzero;stroke:none"
       transform="matrix(1,0,0,-1,70.8,173.638)"><tspan
         id="tspan382"
         y="0"
         x="0 7.5068192 12.657483 17.658709 22.918961 25.270134 30.918928 36.502968 41.763218 49.8927 52.019714 58.350948 63.905098 69.484154 75.06321 80.198929 81.269913 86.081848 91.033257">Developed’Buddy’,an</tspan></text>
<text
       id="text388"
       style="font-variant:normal;font-weight:bold;font-size:9.96259975px;font-family:Lato;-inkscape-font-specification:Lato-Bold;writing-mode:lr-tb;fill:#000000;fill-opacity:1;fill-rule:nonzero;stroke:none"
       transform="matrix(1,0,0,-1,169.943,173.638)"><tspan
         id="tspan386"
         y="0"
         x="0 6.9190259 9.8729362 13.588986 19.242762 22.958811 25.489311 30.590164 35.910191 43.950008 48.751984 54.370888 59.35717 63.063259 68.717033 74.340919">AI-drivenchatbot</tspan></text>
<text
       id="text392"
       style="font-variant:normal;font-weight:normal;font-size:9.96259975px;font-family:Lato;-inkscape-font-specification:Lato-Regular;writing-mode:lr-tb;fill:#000000;fill-opacity:1;fill-rule:nonzero;stroke:none"
       transform="matrix(1,0,0,-1,250.54,173.638)"><tspan
         id="tspan390"
         y="0"
         x="0 5.5541496 9.8679552 12.258979 17.81811">using</tspan></text>
<text
       id="text396"
       style="font-variant:normal;font-weight:bold;font-size:9.96259975px;font-family:Lato;-inkscape-font-specification:Lato-Bold;writing-mode:lr-tb;fill:#000000;fill-opacity:1;fill-rule:nonzero;stroke:none"
       transform="matrix(1,0,0,-1,276.089,173.638)"><tspan
         id="tspan394"
         y="0"
         x="0 7.4968567 10.027357 15.083376 17.559082 23.242746 28.403372 33.962502 36.43821 42.082024">DialogFlow</tspan></text>
<text
       id="text402"
       style="font-variant:normal;font-weight:normal;font-size:9.96259975px;font-family:Lato;-inkscape-font-specification:Lato-Regular;writing-mode:lr-tb;fill:#000000;fill-opacity:1;fill-rule:nonzero;stroke:none"
       transform="matrix(1,0,0,-1,328.712,173.638)"><tspan
         id="tspan398"
         y="0"
         x="0 5.449542 13.135688 20.353592 26.002386 31.621292 36.801846 39.153019 46.963696 53.618713 55.969887 61.618683 67.172829 72.751884 77.56382 81.877625 84.268654 89.449203 95.008331 97.399361 103.10295 107.86009 112.8115 118.3009 121.87248 124.22366 131.90981 137.17006 142.72919 148.28831 153.23973 158.79886 163.556 165.94702 171.50616 179.23714 183.99428 189.54843 193.86223 197.41389 203.0627 211.25693 216.51718">byGoogleCloud,signiﬁcantlyenhancingcustomer</tspan><tspan
         id="tspan400"
         y="11.955"
         x="-257.91199 -253.59819 -248.04405 -242.46001 -236.87598 -231.22717 -227.60078 -221.47878 -216.26833 -207.42653 -202.66939 -200.27837 -195.01811 -189.45897 -184.70183 -177.01569 -172.06427 -166.50514 -158.37566 -153.11542 -147.55627 -142.37573 -137.42432 -132.32347 -127.06321 -118.86897 -113.60872 -108.11933 -104.54774">supporteﬃciencyandengagement.</tspan></text>
<text
       id="text406"
       style="font-variant:normal;font-weight:normal;font-size:5.9776001px;font-family:CMSY6;-inkscape-font-specification:CMSY6;writing-mode:lr-tb;fill:#000000;fill-opacity:1;fill-rule:nonzero;stroke:none"
       transform="matrix(1,0,0,-1,61.526,149.742)"><tspan
         id="tspan404"
         y="0"
         x="0">•</tspan></text>
<text
       id="text412"
       style="font-variant:normal;font-weight:normal;font-size:9.96259975px;font-family:Lato;-inkscape-font-specification:Lato-Regular;writing-mode:lr-tb;fill:#000000;fill-opacity:1;fill-rule:nonzero;stroke:none"
       transform="matrix(1,0,0,-1,70.8,148.677)"><tspan
         id="tspan408"
         y="0"
         x="0 7.5068192 12.767072 17.080877 19.471901 24.652454 30.211584 35.471836 43.601318 48.552731 54.111862 62.241344 64.63237 72.826607 78.410645 80.761818 86.022072 94.216309 99.476562 104.96595 108.50766 113.76791 121.89739 127.47645 132.36809 135.93968 140.89108 144.59219 149.25967 154.51993 160.00932 163.58092 167.20729 169.59833 176.90588 185.10013 190.74892 196.32797 201.88213 204.23331 209.49355 216.35779 219.68031 225.3291 231.50592 237.08995 240.51709 246.16588 251.74493 257.2991 262.05624 268.17825 276.3725 281.32391 286.88303 291.83444 296.9353 302.19556 310.38977 315.65002 321.13943 324.71103 329.52295 335.17175 338.59888 344.17795 349.4382 355.61502 361.19904 364.62619 370.27496 374.94244 380.2027 384.51651 388.83032 391.22134 396.78046 401.96103 406.77295 411.72437 417.28351 425.41299 429.72678 434.67819 437.02939 442.28961 449.15387 454.10529 459.6644 464.61581 466.96698 472.10272 475.67429 478.06534 482.82248 487.13626">Designedandimplementeddata-centricmodulesforproductmanagement,orderprocessing,andsalesanalytics,</tspan><tspan
         id="tspan410"
         y="11.956"
         x="0 5.5840373 9.0012093 14.510527 19.651228 22.042252 27.621309 30.012333 35.571465 43.302441 48.253853 53.010994 56.582588 58.97361 64.622406 70.181534 75.13295 80.712006 83.063179 90.873856 93.264877 98.824013 103.13782 105.52884 110.70939 116.19878 119.77038 126.63461 131.58601 137.14516 145.27463 150.92343 156.50746 161.76772 165.31441 170.20604 173.77763 176.16866 181.81744 187.37659 192.32799 197.2296 201.89706 207.54587 213.03526 216.60684 220.02402 225.67282 228.02399">providingactionableinsightsandoperationalcontrol.</tspan></text>
<text
       id="text416"
       style="font-variant:normal;font-weight:bold;font-size:9.96259975px;font-family:Lato;-inkscape-font-specification:Lato-Bold;writing-mode:lr-tb;fill:#000000;fill-opacity:1;fill-rule:nonzero;stroke:none"
       transform="matrix(1,0,0,-1,46.8,118.125)"><tspan
         id="tspan414"
         y="0"
         x="0 5.9277468 8.4582472 16.801926 24.542866 29.997389 35.317417 39.033466 41.563969 46.883995 53.683472 58.873985 64.597496 68.164108 73.484138 78.28611 83.342133 87.720695 91.426781 93.957283 99.576187 107.25735 112.87626 117.25482 119.78532 125.40423 133.08539 138.26096 143.72545 149.703">TimeSeriesForecastingusingLSTM</tspan></text>
<text
       id="text420"
       style="font-variant:normal;font-weight:normal;font-size:9.96259975px;font-family:CMSY10;-inkscape-font-specification:CMSY10;writing-mode:lr-tb;fill:#000000;fill-opacity:1;fill-rule:nonzero;stroke:none"
       transform="matrix(1,0,0,-1,208.473,118.125)"><tspan
         id="tspan418"
         y="0"
         x="0">|</tspan></text>
<text
       id="text424"
       style="font-style:italic;font-variant:normal;font-size:9.96259975px;font-family:Lato;-inkscape-font-specification:Lato-Italic;writing-mode:lr-tb;fill:#000000;fill-opacity:1;fill-rule:nonzero;stroke:none"
       transform="matrix(1,0,0,-1,213.791,118.125)"><tspan
         id="tspan422"
         y="0"
         x="0 5.5989814 9.4495258 13.813145 18.983734 22.201654 26.729656 32.004852 36.572704 41.309921 46.370922 51.810501 60.403244 64.971092 70.410675 72.702072 80.542641 87.640991 92.672104 97.439209 100.84642 103.13782 107.90492 114.22121 120.50761 125.78779 130.87868 133.12025 137.81763 141.80267 144.09407">PyTorch,LSTM,TimeSeriesAnalysis</tspan></text>
<text
       id="text428"
       style="font-variant:normal;font-weight:normal;font-size:9.96259975px;font-family:FontAwesome5Brands;-inkscape-font-specification:FontAwesome5Brands-Regular;writing-mode:lr-tb;fill:#000000;fill-opacity:1;fill-rule:nonzero;stroke:none"
       transform="matrix(1,0,0,-1,523.943,118.125)"><tspan
         id="tspan426"
         y="0"
         x="0">§</tspan></text>
<text
       id="text432"
       style="font-variant:normal;font-weight:normal;font-size:9.96259975px;font-family:Lato;-inkscape-font-specification:Lato-Regular;writing-mode:lr-tb;fill:#000000;fill-opacity:1;fill-rule:nonzero;stroke:none"
       transform="matrix(1,0,0,-1,536.137,118.125)"><tspan
         id="tspan430"
         y="0"
         x="0 7.2378287 9.6288528 13.200445 20.717226 26.271376">GitHub</tspan></text>
<g
       transform="translate(523.943,115.864)"
       id="g434"><path
         id="path436"
         style="fill:none;stroke:#000000;stroke-width:0.398;stroke-linecap:butt;stroke-linejoin:miter;stroke-miterlimit:10;stroke-dasharray:none;stroke-opacity:1"
         d="M 0,0 H 44.045" /></g><text
       id="text440"
       style="font-variant:normal;font-weight:normal;font-size:5.9776001px;font-family:CMSY6;-inkscape-font-specification:CMSY6;writing-mode:lr-tb;fill:#000000;fill-opacity:1;fill-rule:nonzero;stroke:none"
       transform="matrix(1,0,0,-1,61.526,106.403)"><tspan
         id="tspan438"
         y="0"
         x="0">•</tspan></text>
<text
       id="text444"
       style="font-variant:normal;font-weight:normal;font-size:9.96259975px;font-family:Lato;-inkscape-font-specification:Lato-Regular;writing-mode:lr-tb;fill:#000000;fill-opacity:1;fill-rule:nonzero;stroke:none"
       transform="matrix(1,0,0,-1,70.8,105.101)"><tspan
         id="tspan442"
         y="0"
         x="0 7.5068192 12.657483 17.658709 22.918961 25.270134 30.918928 36.502968 41.763218 49.8927 57.394539 60.966129 63.357155 71.551392 79.362068 83.67588 88.936127 92.562515 94.953537 100.21379 107.07803 110.40055 116.04935 119.47648 124.73673 129.49388 134.44528 138.75909 142.33069 144.72171 150.28084 158.01181 166.20605 171.85484 177.4339 182.69415 187.59576 193.1499 197.46371 199.85474 205.41386 213.14485 218.26064 223.66534 229.54826 241.34897 244.89067 253.08989 258.67392 262.10107 267.36133 272.94037 275.33139 280.08853 286.21054 289.70245 295.25659 298.82819 304.38232 307.7995 315.6102 319.18179 322.72845 327.67987 330.07089 335.33115 340.08829 343.63995 349.28876 352.91513 355.30615 360.56641 367.43066 373.0097 377.96112 382.27493 387.53519 395.66467 401.31345 409.423 414.98215 417.37317 421.68698 425.22867 430.87747 434.50385 436.89487 441.65201 446.60342 451.50504 457.08408 461.97574 465.5473 470.49872">DevelopedatimeseriesforecastingmodelusingLSTMtopredictfuturetrajectoriesbasedonhistoricaldata.</tspan></text>
<text
       id="text448"
       style="font-variant:normal;font-weight:normal;font-size:5.9776001px;font-family:CMSY6;-inkscape-font-specification:CMSY6;writing-mode:lr-tb;fill:#000000;fill-opacity:1;fill-rule:nonzero;stroke:none"
       transform="matrix(1,0,0,-1,61.526,93.16)"><tspan
         id="tspan446"
         y="0"
         x="0">•</tspan></text>
<text
       id="text452"
       style="font-variant:normal;font-weight:normal;font-size:9.96259975px;font-family:Lato;-inkscape-font-specification:Lato-Regular;writing-mode:lr-tb;fill:#000000;fill-opacity:1;fill-rule:nonzero;stroke:none"
       transform="matrix(1,0,0,-1,70.8,92.095)"><tspan
         id="tspan450"
         y="0"
         x="0 6.6052036 11.362346 16.921476 19.3125 24.463163 29.46439 34.724644">Achieved</tspan></text>
<text
       id="text456"
       style="font-variant:normal;font-weight:bold;font-size:9.96259975px;font-family:Lato;-inkscape-font-specification:Lato-Bold;writing-mode:lr-tb;fill:#000000;fill-opacity:1;fill-rule:nonzero;stroke:none"
       transform="matrix(1,0,0,-1,113.659,92.095)"><tspan
         id="tspan454"
         y="0"
         x="0 5.7783079 8.1444254 13.922733 19.701042 25.479349 33.67857 43.093227 48.557713">0.0026MSE</tspan></text>
<text
       id="text460"
       style="font-variant:normal;font-weight:normal;font-size:9.96259975px;font-family:Lato;-inkscape-font-specification:Lato-Regular;writing-mode:lr-tb;fill:#000000;fill-opacity:1;fill-rule:nonzero;stroke:none"
       transform="matrix(1,0,0,-1,170.496,92.095)"><tspan
         id="tspan458"
         y="0"
         x="0 2.3910241 10.500581 15.451993 21.006142 24.547846 30.19664 33.623775 38.884029 44.064579 47.48175 52.742004 57.055809 61.369617 63.760639 68.761864 76.57254 82.156578 85.583717 90.843971 96.423027 98.814049 103.57119 107.14278 109.53381 115.1826 120.74173 125.55367 131.13272 136.39297 144.58722 150.23601 155.79514 160.10895 163.68054 167.22722 172.1089 175.68048 178.07152 183.63065 191.36162 196.92075 199.31178 204.49232 212.60188 217.5533 222.22078 226.97792 232.53206 236.07875 241.03017 245.78731 253.47345 255.86447 263.97403 267.30652 272.95532 276.3725 281.63275 286.38989 291.34128 295.65509 299.22668 301.61771 307.17685 314.90784 318.39972 323.95386 327.52545 333.07962 336.50674 344.31741 347.88901 350.28003 358.47427 366.28494 370.59875 374.14047 379.40073 384.98474 389.29855">inautoregressiveprediction,demonstratinghighaccuracyinforecastingfuturetimesteps.</tspan></text>
<text
       id="text464"
       style="font-variant:normal;font-weight:normal;font-size:5.9776001px;font-family:CMSY6;-inkscape-font-specification:CMSY6;writing-mode:lr-tb;fill:#000000;fill-opacity:1;fill-rule:nonzero;stroke:none"
       transform="matrix(1,0,0,-1,61.526,80.153)"><tspan
         id="tspan462"
         y="0"
         x="0">•</tspan></text>
<text
       id="text468"
       style="font-variant:normal;font-weight:normal;font-size:9.96259975px;font-family:Lato;-inkscape-font-specification:Lato-Regular;writing-mode:lr-tb;fill:#000000;fill-opacity:1;fill-rule:nonzero;stroke:none"
       transform="matrix(1,0,0,-1,70.8,79.088)"><tspan
         id="tspan466"
         y="0"
         x="0 4.747179 9.8978434 14.899068 20.159321 23.706007 28.657419 33.75827 39.018524">Leveraged</tspan></text>
<text
       id="text472"
       style="font-variant:normal;font-weight:bold;font-size:9.96259975px;font-family:Lato;-inkscape-font-specification:Lato-Bold;writing-mode:lr-tb;fill:#000000;fill-opacity:1;fill-rule:nonzero;stroke:none"
       transform="matrix(1,0,0,-1,117.953,79.088)"><tspan
         id="tspan470"
         y="0"
         x="0 6.1668496 10.605187 15.387236 21.11075 24.677361 29.479334">PyTorch</tspan></text>
<text
       id="text476"
       style="font-variant:normal;font-weight:normal;font-size:9.96259975px;font-family:Lato;-inkscape-font-specification:Lato-Regular;writing-mode:lr-tb;fill:#000000;fill-opacity:1;fill-rule:nonzero;stroke:none"
       transform="matrix(1,0,0,-1,155.606,79.088)"><tspan
         id="tspan474"
         y="0"
         x="0 3.551667 11.750887 17.329943 22.884092 25.275116 27.626289 35.755772 40.707184 46.266315 54.395798 60.04459 65.558891 69.130478 71.521507 79.715744 82.106766 86.520203 94.330879 97.902473 103.4616 111.27228 116.38808 121.79279 127.6757 139.47639 147.67064 153.31943 158.89848 164.15874 166.50992 171.32185 176.27327 181.03041 186.58954 188.98056 194.13123 199.27193 201.66295 207.22208 214.95306 220.60185 226.11615 229.68774 232.07877 240.27301 245.22441 250.12602 255.71005 260.97031 264.59668 267.92917 273.57797 277.20438 285.39859 290.35001 295.90915 300.57663 308.3873 316.21292 318.60394 322.17554 330.2851">tobuildandoptimizetheLSTMmodel,achievingoptimalperformancewitha</tspan></text>
<text
       id="text480"
       style="font-variant:normal;font-weight:bold;font-size:9.96259975px;font-family:Lato;-inkscape-font-specification:Lato-Bold;writing-mode:lr-tb;fill:#000000;fill-opacity:1;fill-rule:nonzero;stroke:none"
       transform="matrix(1,0,0,-1,493.389,79.088)"><tspan
         id="tspan478"
         y="0"
         x="0 5.7783079 9.4943581 11.970064 16.886606 21.982477 27.302505 33.439468 38.615036 44.079525 50.057083">4-layerLSTM</tspan></text>
<text
       id="text484"
       style="font-variant:normal;font-weight:normal;font-size:9.96259975px;font-family:Lato;-inkscape-font-specification:Lato-Regular;writing-mode:lr-tb;fill:#000000;fill-opacity:1;fill-rule:nonzero;stroke:none"
       transform="matrix(1,0,0,-1,70.8,67.133)"><tspan
         id="tspan482"
         y="0"
         x="0 4.9514122 8.3685837 13.125726 18.684856 21.07588 24.627546 29.8878 34.644943 38.216534 43.770683 47.187855 54.998535 59.949947 65.509079">architectureand</tspan></text>
<text
       id="text488"
       style="font-variant:normal;font-weight:bold;font-size:9.96259975px;font-family:Lato;-inkscape-font-specification:Lato-Bold;writing-mode:lr-tb;fill:#000000;fill-opacity:1;fill-rule:nonzero;stroke:none"
       transform="matrix(1,0,0,-1,144.443,67.133)"><tspan
         id="tspan486"
         y="0"
         x="0 5.7783079 13.977528 19.596434 22.126934 27.78071 33.434486 38.754513 46.794331 52.413239 58.032146 60.562645 64.26873">64hiddenunits</tspan></text>
<text
       id="text492"
       style="font-variant:normal;font-weight:normal;font-size:9.96259975px;font-family:Lato;-inkscape-font-specification:Lato-Regular;writing-mode:lr-tb;fill:#000000;fill-opacity:1;fill-rule:nonzero;stroke:none"
       transform="matrix(1,0,0,-1,213.091,67.133)"><tspan
         id="tspan490"
         y="0"
         x="0">.</tspan></text>
<text
       id="text496"
       style="font-variant:normal;font-weight:normal;font-size:5.9776001px;font-family:CMSY6;-inkscape-font-specification:CMSY6;writing-mode:lr-tb;fill:#000000;fill-opacity:1;fill-rule:nonzero;stroke:none"
       transform="matrix(1,0,0,-1,61.526,55.192)"><tspan
         id="tspan494"
         y="0"
         x="0">•</tspan></text>
<text
       id="text502"
       style="font-variant:normal;font-weight:normal;font-size:9.96259975px;font-family:Lato;-inkscape-font-specification:Lato-Regular;writing-mode:lr-tb;fill:#000000;fill-opacity:1;fill-rule:nonzero;stroke:none"
       transform="matrix(1,0,0,-1,70.8,54.126)"><tspan
         id="tspan498"
         y="0"
         x="0 4.7870293 8.3337145 13.285127 15.676151 21.235281 26.495535 34.625015 38.196609 43.755737 51.566418 59.760654 65.409447 70.988503 76.248756 81.15036 86.799156 94.908707 97.25988 102.2113 105.71813 110.81898 118.62966 124.20872 129.10036 132.67195 137.62335 141.93716 147.15756 150.72916 157.59338 165.41901 167.81003 171.38162 179.49118 185.04533 193.17979 196.73146 204.93068 210.70898 216.4873 224.81602 228.38762 230.77864 238.97289 244.23314 247.93425 252.24805 255.78975 261.05002 266.63403 273.49829 279.08231 284.34256 290.51938 292.9104 298.46954 304.05356 309.60773 315.72974 320.04355 325.3038 330.88284 336.43701 341.69727 347.25638 351.92386 357.18411 361.99606 367.25632 375.45053 381.03458 383.38574 388.87515 394.01086 396.40189 401.96103 409.69199 414.6434 420.22247 425.25357 430.20499 435.76413 440.43161 445.69186 453.82135 457.37302 462.63327 467.39041 472.94952 478.50867 480.89969 486.47873 492.0329 497.29315">Trainedthemodelonlargedatasetswithupto150time-stepsperinputsequence,employingadvancedtechniques</tspan><tspan
         id="tspan500"
         y="11.955"
         x="0 2.3511736 4.7421975 9.5142832">like</tspan></text>
<text
       id="text506"
       style="font-variant:normal;font-weight:bold;font-size:9.96259975px;font-family:Lato;-inkscape-font-specification:Lato-Bold;writing-mode:lr-tb;fill:#000000;fill-opacity:1;fill-rule:nonzero;stroke:none"
       transform="matrix(1,0,0,-1,88.13,42.171)"><tspan
         id="tspan504"
         y="0"
         x="0 5.6537757 9.2203865 14.9439 20.602657 26.32617 31.945076 38.072075 40.806808 46.585117 48.951237 54.729542 62.893894">dropout(0.3%)</tspan></text>
<text
       id="text510"
       style="font-variant:normal;font-weight:normal;font-size:9.96259975px;font-family:Lato;-inkscape-font-specification:Lato-Regular;writing-mode:lr-tb;fill:#000000;fill-opacity:1;fill-rule:nonzero;stroke:none"
       transform="matrix(1,0,0,-1,156.314,42.171)"><tspan
         id="tspan508"
         y="0"
         x="0 3.5417044 11.740924 17.324961 20.752096 25.90276 30.903986 36.164238 41.653629 47.77565 53.284966 58.28619 63.546444 67.172829 72.876419 76.448013 80.0196 82.410629 87.969757 93.150307">topreventoverﬁtting.</tspan></text>
</g></svg>